<mxfile host="app.diagrams.net" modified="2020-08-28T00:07:01.919Z" agent="5.0 (X11)" etag="7fhNSwLR665ibRzvojTn" version="13.6.5" type="github">
  <diagram id="F0AHolVVesLSMNE4kyMN" name="Page-1">
    <mxGraphModel dx="2062" dy="1172" grid="1" gridSize="10" guides="1" tooltips="1" connect="1" arrows="1" fold="1" page="1" pageScale="1" pageWidth="850" pageHeight="1100" math="0" shadow="0">
      <root>
        <mxCell id="0" />
        <mxCell id="1" parent="0" />
        <mxCell id="XyMEwlzETBZZqd7nD72x-1" style="edgeStyle=orthogonalEdgeStyle;rounded=0;orthogonalLoop=1;jettySize=auto;html=1;exitX=1;exitY=0.5;exitDx=0;exitDy=0;entryX=0;entryY=0.5;entryDx=0;entryDy=0;" edge="1" parent="1" source="XyMEwlzETBZZqd7nD72x-2" target="XyMEwlzETBZZqd7nD72x-3">
          <mxGeometry relative="1" as="geometry" />
        </mxCell>
        <mxCell id="XyMEwlzETBZZqd7nD72x-2" value="Package download &amp;amp; installation" style="whiteSpace=wrap;html=1;rounded=1;shadow=1;fontStyle=1" vertex="1" parent="1">
          <mxGeometry x="119.5" y="79" width="105" height="48" as="geometry" />
        </mxCell>
        <mxCell id="XyMEwlzETBZZqd7nD72x-3" value="Metadata extraction&lt;br&gt;&lt;span style=&quot;font-weight: normal ; font-size: 10px&quot;&gt;- code size&lt;br&gt;- code coverage&lt;br&gt;&lt;/span&gt;" style="whiteSpace=wrap;html=1;rounded=1;shadow=1;fontStyle=1" vertex="1" parent="1">
          <mxGeometry x="269" y="82" width="113" height="98" as="geometry" />
        </mxCell>
        <mxCell id="XyMEwlzETBZZqd7nD72x-4" value="Programs extraction&lt;br&gt;&lt;div style=&quot;font-size: 11px&quot;&gt;&lt;span style=&quot;font-weight: normal&quot;&gt;&lt;font style=&quot;font-size: 11px&quot;&gt;- examples&lt;/font&gt;&lt;/span&gt;&lt;/div&gt;&lt;div style=&quot;font-size: 11px&quot;&gt;&lt;span style=&quot;font-weight: normal&quot;&gt;&lt;font style=&quot;font-size: 11px&quot;&gt;-vignettes&lt;/font&gt;&lt;/span&gt;&lt;/div&gt;&lt;div style=&quot;font-size: 11px&quot;&gt;&lt;span style=&quot;font-weight: normal&quot;&gt;&lt;font style=&quot;font-size: 11px&quot;&gt;- kaggle kernels&lt;/font&gt;&lt;/span&gt;&lt;br&gt;&lt;/div&gt;" style="whiteSpace=wrap;html=1;rounded=1;shadow=1;fontStyle=1;fillColor=#FFFFFF;" vertex="1" parent="1">
          <mxGeometry x="422" y="86" width="107" height="90" as="geometry" />
        </mxCell>
        <mxCell id="XyMEwlzETBZZqd7nD72x-5" value="Programs&lt;br&gt;&lt;div&gt;tracing&lt;/div&gt;&lt;div style=&quot;font-size: 11px&quot;&gt;&lt;span style=&quot;font-weight: normal&quot;&gt;- dynamic analysis&lt;/span&gt;&lt;br&gt;&lt;/div&gt;" style="whiteSpace=wrap;html=1;rounded=1;shadow=1;fontStyle=1;fillColor=#f8cecc;strokeColor=#b85450;" vertex="1" parent="1">
          <mxGeometry x="563" y="92" width="108" height="78" as="geometry" />
        </mxCell>
        <mxCell id="XyMEwlzETBZZqd7nD72x-6" value="Data&lt;br&gt;analysis" style="whiteSpace=wrap;html=1;rounded=1;shadow=1;fontStyle=1;fillColor=#f8cecc;strokeColor=#b85450;" vertex="1" parent="1">
          <mxGeometry x="715" y="92" width="108" height="78" as="geometry" />
        </mxCell>
        <mxCell id="XyMEwlzETBZZqd7nD72x-7" style="edgeStyle=orthogonalEdgeStyle;rounded=0;orthogonalLoop=1;jettySize=auto;html=1;entryX=0;entryY=0.5;entryDx=0;entryDy=0;exitX=1;exitY=0.5;exitDx=0;exitDy=0;" edge="1" parent="1" source="XyMEwlzETBZZqd7nD72x-3" target="XyMEwlzETBZZqd7nD72x-4">
          <mxGeometry relative="1" as="geometry">
            <mxPoint x="349" y="122" as="sourcePoint" />
            <mxPoint x="279" y="132" as="targetPoint" />
          </mxGeometry>
        </mxCell>
        <mxCell id="XyMEwlzETBZZqd7nD72x-8" style="edgeStyle=orthogonalEdgeStyle;rounded=0;orthogonalLoop=1;jettySize=auto;html=1;exitX=1;exitY=0.5;exitDx=0;exitDy=0;entryX=0;entryY=0.5;entryDx=0;entryDy=0;" edge="1" parent="1" source="XyMEwlzETBZZqd7nD72x-4" target="XyMEwlzETBZZqd7nD72x-5">
          <mxGeometry relative="1" as="geometry">
            <mxPoint x="249" y="142" as="sourcePoint" />
            <mxPoint x="289" y="142" as="targetPoint" />
          </mxGeometry>
        </mxCell>
        <mxCell id="XyMEwlzETBZZqd7nD72x-9" style="edgeStyle=orthogonalEdgeStyle;rounded=0;orthogonalLoop=1;jettySize=auto;html=1;exitX=1;exitY=0.5;exitDx=0;exitDy=0;entryX=0;entryY=0.5;entryDx=0;entryDy=0;" edge="1" parent="1" source="XyMEwlzETBZZqd7nD72x-5" target="XyMEwlzETBZZqd7nD72x-6">
          <mxGeometry relative="1" as="geometry">
            <mxPoint x="259" y="152" as="sourcePoint" />
            <mxPoint x="299" y="152" as="targetPoint" />
          </mxGeometry>
        </mxCell>
        <mxCell id="XyMEwlzETBZZqd7nD72x-10" value="Result" style="text;html=1;strokeColor=none;fillColor=none;align=center;verticalAlign=middle;whiteSpace=wrap;rounded=0;fontStyle=1" vertex="1" parent="1">
          <mxGeometry x="56" y="238" width="41" height="20" as="geometry" />
        </mxCell>
        <mxCell id="XyMEwlzETBZZqd7nD72x-11" value="Size" style="text;html=1;strokeColor=none;fillColor=none;align=center;verticalAlign=middle;whiteSpace=wrap;rounded=0;fontStyle=1" vertex="1" parent="1">
          <mxGeometry x="66" y="269" width="31" height="20" as="geometry" />
        </mxCell>
        <mxCell id="XyMEwlzETBZZqd7nD72x-12" value="" style="endArrow=none;html=1;" edge="1" parent="1">
          <mxGeometry width="50" height="50" relative="1" as="geometry">
            <mxPoint x="27" y="264" as="sourcePoint" />
            <mxPoint x="852" y="264" as="targetPoint" />
          </mxGeometry>
        </mxCell>
        <mxCell id="XyMEwlzETBZZqd7nD72x-14" value="" style="endArrow=none;dashed=1;html=1;fontStyle=1;" edge="1" parent="1">
          <mxGeometry width="50" height="50" relative="1" as="geometry">
            <mxPoint x="103" y="290" as="sourcePoint" />
            <mxPoint x="103" y="42" as="targetPoint" />
          </mxGeometry>
        </mxCell>
        <mxCell id="XyMEwlzETBZZqd7nD72x-15" value="" style="endArrow=none;dashed=1;html=1;" edge="1" parent="1">
          <mxGeometry width="50" height="50" relative="1" as="geometry">
            <mxPoint x="247" y="290" as="sourcePoint" />
            <mxPoint x="247" y="230" as="targetPoint" />
          </mxGeometry>
        </mxCell>
        <mxCell id="XyMEwlzETBZZqd7nD72x-16" value="" style="endArrow=none;dashed=1;html=1;" edge="1" parent="1">
          <mxGeometry width="50" height="50" relative="1" as="geometry">
            <mxPoint x="401" y="290" as="sourcePoint" />
            <mxPoint x="401" y="230" as="targetPoint" />
          </mxGeometry>
        </mxCell>
        <mxCell id="XyMEwlzETBZZqd7nD72x-17" value="" style="endArrow=none;dashed=1;html=1;" edge="1" parent="1">
          <mxGeometry width="50" height="50" relative="1" as="geometry">
            <mxPoint x="545" y="290" as="sourcePoint" />
            <mxPoint x="545.0000000000002" y="142" as="targetPoint" />
          </mxGeometry>
        </mxCell>
        <mxCell id="XyMEwlzETBZZqd7nD72x-18" value="" style="endArrow=none;dashed=1;html=1;" edge="1" parent="1">
          <mxGeometry width="50" height="50" relative="1" as="geometry">
            <mxPoint x="691" y="290" as="sourcePoint" />
            <mxPoint x="691" y="142" as="targetPoint" />
          </mxGeometry>
        </mxCell>
        <mxCell id="XyMEwlzETBZZqd7nD72x-19" value="" style="endArrow=none;dashed=1;html=1;" edge="1" parent="1">
          <mxGeometry width="50" height="50" relative="1" as="geometry">
            <mxPoint x="839" y="300" as="sourcePoint" />
            <mxPoint x="839" y="142" as="targetPoint" />
          </mxGeometry>
        </mxCell>
        <mxCell id="XyMEwlzETBZZqd7nD72x-20" value="1h" style="text;html=1;strokeColor=none;fillColor=none;align=center;verticalAlign=middle;whiteSpace=wrap;rounded=0;" vertex="1" parent="1">
          <mxGeometry x="147" y="45" width="40" height="20" as="geometry" />
        </mxCell>
        <mxCell id="XyMEwlzETBZZqd7nD72x-21" value="Duration" style="text;html=1;strokeColor=none;fillColor=none;align=center;verticalAlign=middle;whiteSpace=wrap;rounded=0;fontStyle=1" vertex="1" parent="1">
          <mxGeometry x="47.00000000000006" y="45" width="50" height="20" as="geometry" />
        </mxCell>
        <mxCell id="XyMEwlzETBZZqd7nD72x-22" value="6h" style="text;html=1;strokeColor=none;fillColor=none;align=center;verticalAlign=middle;whiteSpace=wrap;rounded=0;" vertex="1" parent="1">
          <mxGeometry x="305.5" y="45" width="40" height="20" as="geometry" />
        </mxCell>
        <mxCell id="XyMEwlzETBZZqd7nD72x-23" value="30m" style="text;html=1;strokeColor=none;fillColor=none;align=center;verticalAlign=middle;whiteSpace=wrap;rounded=0;" vertex="1" parent="1">
          <mxGeometry x="455.5" y="45" width="40" height="20" as="geometry" />
        </mxCell>
        <mxCell id="XyMEwlzETBZZqd7nD72x-24" value="16h" style="text;html=1;strokeColor=none;fillColor=none;align=center;verticalAlign=middle;whiteSpace=wrap;rounded=0;" vertex="1" parent="1">
          <mxGeometry x="597" y="45" width="40" height="20" as="geometry" />
        </mxCell>
        <mxCell id="XyMEwlzETBZZqd7nD72x-25" value="2h" style="text;html=1;strokeColor=none;fillColor=none;align=center;verticalAlign=middle;whiteSpace=wrap;rounded=0;" vertex="1" parent="1">
          <mxGeometry x="744" y="45" width="50" height="20" as="geometry" />
        </mxCell>
        <mxCell id="XyMEwlzETBZZqd7nD72x-26" value="&lt;div align=&quot;center&quot;&gt;1206 packages&lt;br&gt;&lt;/div&gt;&lt;div&gt;2.8K kernels&lt;/div&gt;" style="text;html=1;align=center;" vertex="1" parent="1">
          <mxGeometry x="112" y="228" width="125" height="44" as="geometry" />
        </mxCell>
        <mxCell id="XyMEwlzETBZZqd7nD72x-27" value="5.5GB" style="text;html=1;align=right;" vertex="1" parent="1">
          <mxGeometry x="147" y="267" width="45" height="30" as="geometry" />
        </mxCell>
        <mxCell id="XyMEwlzETBZZqd7nD72x-29" value="2.6GB" style="text;html=1;align=right;" vertex="1" parent="1">
          <mxGeometry x="309.5" y="267" width="32" height="30" as="geometry" />
        </mxCell>
        <mxCell id="XyMEwlzETBZZqd7nD72x-31" value="800MB" style="text;html=1;align=right;" vertex="1" parent="1">
          <mxGeometry x="452.93" y="267" width="45.13" height="30" as="geometry" />
        </mxCell>
        <mxCell id="XyMEwlzETBZZqd7nD72x-32" value="8.5M calls to eval" style="text;html=1;align=center;" vertex="1" parent="1">
          <mxGeometry x="552" y="237" width="130" height="20" as="geometry" />
        </mxCell>
        <mxCell id="XyMEwlzETBZZqd7nD72x-33" value="600K unique evals" style="text;html=1;align=right;" vertex="1" parent="1">
          <mxGeometry x="704" y="235" width="110" height="24" as="geometry" />
        </mxCell>
        <mxCell id="XyMEwlzETBZZqd7nD72x-34" value="900MB" style="text;html=1;align=right;" vertex="1" parent="1">
          <mxGeometry x="724" y="264" width="90" height="30" as="geometry" />
        </mxCell>
        <mxCell id="XyMEwlzETBZZqd7nD72x-35" value="" style="endArrow=none;html=1;" edge="1" parent="1">
          <mxGeometry width="50" height="50" relative="1" as="geometry">
            <mxPoint x="27" y="72" as="sourcePoint" />
            <mxPoint x="852" y="72" as="targetPoint" />
          </mxGeometry>
        </mxCell>
        <mxCell id="XyMEwlzETBZZqd7nD72x-36" value="" style="endArrow=none;dashed=1;html=1;" edge="1" parent="1">
          <mxGeometry width="50" height="50" relative="1" as="geometry">
            <mxPoint x="247" y="80" as="sourcePoint" />
            <mxPoint x="247" y="41.5" as="targetPoint" />
          </mxGeometry>
        </mxCell>
        <mxCell id="XyMEwlzETBZZqd7nD72x-37" value="" style="endArrow=none;dashed=1;html=1;" edge="1" parent="1">
          <mxGeometry width="50" height="50" relative="1" as="geometry">
            <mxPoint x="401" y="120" as="sourcePoint" />
            <mxPoint x="401" y="41.5" as="targetPoint" />
          </mxGeometry>
        </mxCell>
        <mxCell id="XyMEwlzETBZZqd7nD72x-38" value="" style="endArrow=none;dashed=1;html=1;" edge="1" parent="1">
          <mxGeometry width="50" height="50" relative="1" as="geometry">
            <mxPoint x="546" y="120" as="sourcePoint" />
            <mxPoint x="546" y="41.5" as="targetPoint" />
          </mxGeometry>
        </mxCell>
        <mxCell id="XyMEwlzETBZZqd7nD72x-39" value="" style="endArrow=none;dashed=1;html=1;" edge="1" parent="1">
          <mxGeometry width="50" height="50" relative="1" as="geometry">
            <mxPoint x="691" y="120" as="sourcePoint" />
            <mxPoint x="691" y="41.5" as="targetPoint" />
          </mxGeometry>
        </mxCell>
        <mxCell id="XyMEwlzETBZZqd7nD72x-40" value="" style="endArrow=none;dashed=1;html=1;" edge="1" parent="1">
          <mxGeometry width="50" height="50" relative="1" as="geometry">
            <mxPoint x="839" y="150" as="sourcePoint" />
            <mxPoint x="839" y="42" as="targetPoint" />
          </mxGeometry>
        </mxCell>
        <mxCell id="XyMEwlzETBZZqd7nD72x-47" value="" style="endArrow=none;html=1;" edge="1" parent="1">
          <mxGeometry width="50" height="50" relative="1" as="geometry">
            <mxPoint x="27" y="229" as="sourcePoint" />
            <mxPoint x="852" y="229" as="targetPoint" />
          </mxGeometry>
        </mxCell>
        <mxCell id="XyMEwlzETBZZqd7nD72x-48" value="2GB" style="text;html=1;align=right;" vertex="1" parent="1">
          <mxGeometry x="588.5" y="268" width="42" height="30" as="geometry" />
        </mxCell>
        <mxCell id="XyMEwlzETBZZqd7nD72x-49" value="Kaggle kernels download" style="whiteSpace=wrap;html=1;rounded=1;shadow=1;fontStyle=1" vertex="1" parent="1">
          <mxGeometry x="119.5" y="135" width="105" height="58" as="geometry" />
        </mxCell>
        <mxCell id="XyMEwlzETBZZqd7nD72x-50" style="edgeStyle=orthogonalEdgeStyle;rounded=0;orthogonalLoop=1;jettySize=auto;html=1;exitX=1;exitY=0.5;exitDx=0;exitDy=0;entryX=0;entryY=0.5;entryDx=0;entryDy=0;" edge="1" parent="1" source="XyMEwlzETBZZqd7nD72x-49" target="XyMEwlzETBZZqd7nD72x-3">
          <mxGeometry relative="1" as="geometry">
            <mxPoint x="234.5" y="121" as="sourcePoint" />
            <mxPoint x="279" y="141" as="targetPoint" />
            <Array as="points">
              <mxPoint x="247" y="161" />
              <mxPoint x="247" y="131" />
            </Array>
          </mxGeometry>
        </mxCell>
        <mxCell id="XyMEwlzETBZZqd7nD72x-52" value="&lt;div align=&quot;center&quot;&gt;500 packages&lt;br&gt;&lt;/div&gt;&lt;div&gt;2.8K kernels&lt;/div&gt;" style="text;html=1;align=center;" vertex="1" parent="1">
          <mxGeometry x="263" y="228" width="125" height="44" as="geometry" />
        </mxCell>
        <mxCell id="XyMEwlzETBZZqd7nD72x-54" value="18K programs" style="text;html=1;align=center;" vertex="1" parent="1">
          <mxGeometry x="413" y="235" width="125" height="24" as="geometry" />
        </mxCell>
        <mxCell id="XyMEwlzETBZZqd7nD72x-60" value="Tool" style="text;html=1;strokeColor=none;fillColor=none;align=center;verticalAlign=middle;whiteSpace=wrap;rounded=0;fontStyle=1" vertex="1" parent="1">
          <mxGeometry x="66" y="208" width="31" height="20" as="geometry" />
        </mxCell>
        <mxCell id="XyMEwlzETBZZqd7nD72x-61" value="" style="endArrow=none;html=1;" edge="1" parent="1">
          <mxGeometry width="50" height="50" relative="1" as="geometry">
            <mxPoint x="22" y="198" as="sourcePoint" />
            <mxPoint x="850" y="198" as="targetPoint" />
          </mxGeometry>
        </mxCell>
        <mxCell id="XyMEwlzETBZZqd7nD72x-64" value="runr" style="text;html=1;align=center;fontStyle=1" vertex="1" parent="1">
          <mxGeometry x="300.37" y="201" width="45.13" height="20" as="geometry" />
        </mxCell>
        <mxCell id="XyMEwlzETBZZqd7nD72x-65" value="evil / instrumentr" style="text;html=1;align=center;fontStyle=1" vertex="1" parent="1">
          <mxGeometry x="563" y="202" width="113" height="20" as="geometry" />
        </mxCell>
        <mxCell id="XyMEwlzETBZZqd7nD72x-67" value="Rmarkdown" style="text;html=1;align=center;fontStyle=0;" vertex="1" parent="1">
          <mxGeometry x="710" y="203" width="113" height="20" as="geometry" />
        </mxCell>
        <mxCell id="XyMEwlzETBZZqd7nD72x-68" value="" style="endArrow=none;dashed=1;html=1;" edge="1" parent="1">
          <mxGeometry width="50" height="50" relative="1" as="geometry">
            <mxPoint x="247" y="182" as="sourcePoint" />
            <mxPoint x="247" y="198" as="targetPoint" />
          </mxGeometry>
        </mxCell>
        <mxCell id="XyMEwlzETBZZqd7nD72x-69" value="" style="endArrow=none;dashed=1;html=1;" edge="1" parent="1">
          <mxGeometry width="50" height="50" relative="1" as="geometry">
            <mxPoint x="401" y="140" as="sourcePoint" />
            <mxPoint x="401" y="198" as="targetPoint" />
          </mxGeometry>
        </mxCell>
      </root>
    </mxGraphModel>
  </diagram>
</mxfile>
